<svg xmlns="http://www.w3.org/2000/svg" viewBox="0 0 729 174" aria-label="Studyworks">
  
  <g transform="translate(68, 94)">
    <g fill="#102a43">
      <g>
        <rect x="-8" y="-66" width="16" height="16" rx="2.5"></rect>
        <rect x="-8" y="50" width="16" height="16" rx="2.5"></rect>
        <rect x="-66" y="-8" width="16" height="16" rx="2.5"></rect>
        <rect x="50" y="-8" width="16" height="16" rx="2.5"></rect>
      </g>
      <g transform="rotate(45)">
        <rect x="-8" y="-66" width="16" height="16" rx="2.5"></rect>
        <rect x="-8" y="50" width="16" height="16" rx="2.5"></rect>
        <rect x="-66" y="-8" width="16" height="16" rx="2.5"></rect>
        <rect x="50" y="-8" width="16" height="16" rx="2.5"></rect>
      </g>
      <circle r="50"></circle>
    </g>
    <circle r="16" fill="#ffffff"></circle>
  </g>

  
  <g transform="translate(124, 36) rotate(22)">
    <g fill="#bf8700">
      <g>
        <rect x="-5" y="-38" width="10" height="10" rx="1.8"></rect>
        <rect x="-5" y="28" width="10" height="10" rx="1.8"></rect>
        <rect x="-38" y="-5" width="10" height="10" rx="1.8"></rect>
        <rect x="28" y="-5" width="10" height="10" rx="1.8"></rect>
      </g>
      <g transform="rotate(45)">
        <rect x="-5" y="-38" width="10" height="10" rx="1.8"></rect>
        <rect x="-5" y="28" width="10" height="10" rx="1.8"></rect>
        <rect x="-38" y="-5" width="10" height="10" rx="1.8"></rect>
        <rect x="28" y="-5" width="10" height="10" rx="1.8"></rect>
      </g>
      <circle r="28"></circle>
    </g>
    <circle r="9" fill="#ffffff"></circle>
  </g>

  <text x="170" y="124" font-family="&#39;Playfair Display&#39;, Georgia, serif" font-weight="700" font-size="86" letter-spacing="-1.3" fill="#102a43">Study<tspan fill="#bf8700">works</tspan></text>
</svg>