<svg xmlns="http://www.w3.org/2000/svg" viewBox="0 0 140 140" aria-label="Studyworks mark">
  
  
  <g transform="translate(60, 86)">
    <g fill="#102a43">
      <g>
        <rect x="-6" y="-50" width="12" height="12" rx="2"></rect>
        <rect x="-6" y="38" width="12" height="12" rx="2"></rect>
        <rect x="-50" y="-6" width="12" height="12" rx="2"></rect>
        <rect x="38" y="-6" width="12" height="12" rx="2"></rect>
      </g>
      <g transform="rotate(45)">
        <rect x="-6" y="-50" width="12" height="12" rx="2"></rect>
        <rect x="-6" y="38" width="12" height="12" rx="2"></rect>
        <rect x="-50" y="-6" width="12" height="12" rx="2"></rect>
        <rect x="38" y="-6" width="12" height="12" rx="2"></rect>
      </g>
      <circle r="38"></circle>
    </g>
    <circle r="12" fill="#ffffff"></circle>
  </g>

  
  <g transform="translate(102, 42) rotate(22)">
    <g fill="#bf8700">
      <g>
        <rect x="-4" y="-28" width="8" height="8" rx="1.4"></rect>
        <rect x="-4" y="20" width="8" height="8" rx="1.4"></rect>
        <rect x="-28" y="-4" width="8" height="8" rx="1.4"></rect>
        <rect x="20" y="-4" width="8" height="8" rx="1.4"></rect>
      </g>
      <g transform="rotate(45)">
        <rect x="-4" y="-28" width="8" height="8" rx="1.4"></rect>
        <rect x="-4" y="20" width="8" height="8" rx="1.4"></rect>
        <rect x="-28" y="-4" width="8" height="8" rx="1.4"></rect>
        <rect x="20" y="-4" width="8" height="8" rx="1.4"></rect>
      </g>
      <circle r="22"></circle>
    </g>
    <circle r="7" fill="#ffffff"></circle>
  </g>
</svg>